# File produced by Open Asset Import Library (http://www.assimp.sf.net)
# (assimp v4.1.0)

mtllib umr1p2yffeyb.mtl

# 24 vertex positions
v  0 306 0
v  0 0 0
v  0 306 250
v  0 0 250
v  537 306 0
v  537 306 250
v  537 0 0
v  537 0 250
v  262.5 294 250
v  11.9999942779541 294 250
v  274.5 11.9999942779541 250
v  525 11.9999942779541 250
v  525 294 250
v  274.5 294 250
v  262.5 11.9999942779541 250
v  11.9999942779541 11.9999942779541 250
v  274.5 294 11.9999942779541
v  274.5 11.9999942779541 11.9999942779541
v  525 294 11.9999942779541
v  525 11.9999942779541 11.9999942779541
v  11.9999942779541 294 11.9999942779541
v  11.9999942779541 11.9999942779541 11.9999942779541
v  262.5 294 11.9999942779541
v  262.5 11.9999942779541 11.9999942779541

# 0 UV coordinates

# 6 vertex normals
vn -1 0 0
vn 0 1 0
vn 1 0 0
vn 0 -1 0
vn -0 -0 -1
vn 0 0 1

# Mesh '<STL_BINARY>' with 44 faces
g <STL_BINARY>
usemtl DefaultMaterial
f  1//1 2//1 3//1
f  3//1 2//1 4//1
f  5//2 1//2 6//2
f  6//2 1//2 3//2
f  7//3 5//3 8//3
f  8//3 5//3 6//3
f  2//4 7//4 4//4
f  4//4 7//4 8//4
f  5//5 7//5 1//5
f  1//5 7//5 2//5
f  6//6 3//6 9//6
f  9//6 3//6 10//6
f  4//6 8//6 11//6
f  11//6 8//6 12//6
f  12//6 8//6 13//6
f  13//6 8//6 6//6
f  13//6 6//6 14//6
f  14//6 6//6 9//6
f  14//6 9//6 15//6
f  10//6 3//6 16//6
f  16//6 3//6 4//6
f  16//6 4//6 15//6
f  15//6 4//6 11//6
f  15//6 11//6 14//6
f  14//3 11//3 17//3
f  17//3 11//3 18//3
f  13//4 14//4 19//4
f  19//4 14//4 17//4
f  12//1 13//1 20//1
f  20//1 13//1 19//1
f  11//2 12//2 18//2
f  18//2 12//2 20//2
f  20//6 19//6 18//6
f  18//6 19//6 17//6
f  10//3 16//3 21//3
f  21//3 16//3 22//3
f  9//4 10//4 23//4
f  23//4 10//4 21//4
f  15//1 9//1 24//1
f  24//1 9//1 23//1
f  16//2 15//2 22//2
f  22//2 15//2 24//2
f  24//6 23//6 22//6
f  22//6 23//6 21//6

